<svg id="svg" version="1.1" xmlns="http://www.w3.org/2000/svg" xmlns:xlink="http://www.w3.org/1999/xlink" width="400" height="400" viewBox="0, 0, 400,400"><g id="svgg"><path id="path0" d="M0.000 200.000 L 0.000 400.000 200.000 400.000 L 400.000 400.000 400.000 200.000 L 400.000 0.000 200.000 0.000 L 0.000 0.000 0.000 200.000 M148.438 20.079 C 154.457 21.749,156.447 22.923,160.568 27.234 C 176.503 43.902,178.715 59.118,168.010 78.440 C 161.802 89.648,161.056 94.840,164.187 105.078 C 167.708 116.592,169.829 119.988,178.320 127.713 C 180.039 129.276,183.078 132.049,185.075 133.874 C 187.071 135.699,189.987 138.805,191.556 140.775 C 197.462 148.194,202.235 150.072,213.477 149.397 C 226.765 148.600,265.476 148.204,294.727 148.566 C 311.571 148.774,326.189 148.743,335.742 148.479 C 352.727 148.011,354.922 148.259,355.567 150.723 C 356.580 154.599,348.628 156.993,334.647 157.021 C 330.017 157.031,329.350 157.130,325.663 158.358 C 320.431 160.101,315.503 160.722,309.766 160.363 C 307.295 160.208,299.824 160.128,293.164 160.185 C 286.504 160.242,277.803 160.245,273.828 160.193 C 266.611 160.098,260.337 160.457,250.391 161.536 C 243.497 162.284,238.385 162.797,234.766 163.104 C 233.154 163.240,230.263 163.696,228.341 164.116 C 225.717 164.690,223.707 164.851,220.277 164.764 C 215.104 164.633,213.795 165.153,214.194 167.179 C 215.361 173.088,217.983 177.501,221.767 179.922 C 223.550 181.062,223.870 181.435,223.678 182.150 C 223.552 182.622,223.446 183.228,223.443 183.496 C 223.440 183.794,222.898 183.984,222.058 183.984 C 218.675 183.984,216.797 185.737,216.797 188.894 C 216.797 191.091,217.147 191.581,219.609 192.825 C 221.158 193.607,223.047 196.562,223.047 198.202 C 223.047 199.406,223.755 199.967,228.228 202.304 C 233.467 205.041,236.466 204.960,239.114 202.010 C 240.030 200.990,241.147 200.283,242.595 199.809 C 243.767 199.425,246.222 198.334,248.049 197.385 C 253.548 194.530,257.192 195.088,259.594 199.154 C 260.884 201.338,264.310 202.371,272.146 202.940 C 276.661 203.268,279.148 203.987,281.694 205.700 C 284.687 207.714,285.779 207.704,285.621 205.664 C 285.337 202.014,289.953 199.045,295.550 199.279 C 298.637 199.408,299.004 199.525,303.398 201.801 C 309.903 205.169,311.491 205.632,315.500 205.323 C 319.361 205.027,320.418 205.367,323.249 207.821 C 324.320 208.748,326.099 210.086,327.204 210.793 C 328.722 211.765,329.559 212.699,330.629 214.612 C 332.425 217.822,333.506 218.573,337.979 219.715 C 342.633 220.903,342.754 220.952,345.373 222.713 C 346.588 223.529,348.768 224.644,350.218 225.190 C 356.726 227.639,358.438 230.561,354.394 232.317 C 351.423 233.607,262.534 233.970,236.914 232.797 C 202.381 231.216,200.276 231.406,196.462 236.453 C 188.549 246.922,184.242 257.928,184.203 267.779 L 184.180 273.644 185.518 276.366 C 186.615 278.596,187.729 279.932,191.688 283.770 C 199.012 290.868,199.600 292.563,199.606 306.583 C 199.608 310.312,199.802 315.864,200.038 318.921 C 200.364 323.159,200.352 325.308,199.988 327.963 C 199.705 330.025,199.394 339.491,199.224 351.172 C 198.751 383.745,200.699 382.021,165.234 381.260 C 152.881 380.994,141.719 380.783,140.430 380.790 C 139.141 380.797,135.010 380.838,131.250 380.882 C 127.490 380.926,122.721 380.753,120.652 380.499 C 117.923 380.164,115.991 380.148,113.620 380.442 C 108.247 381.108,73.016 381.771,70.520 381.253 C 66.926 380.506,64.593 378.343,63.612 374.843 C 63.047 372.830,63.018 367.659,63.372 331.641 C 63.758 292.436,63.609 293.368,70.584 286.581 C 83.174 274.333,82.729 264.050,68.562 239.844 C 57.775 221.412,54.122 209.690,54.136 193.555 C 54.146 182.657,55.671 177.947,60.448 174.062 C 61.899 172.883,63.577 171.292,64.178 170.527 C 66.820 167.165,70.650 165.558,71.440 167.480 C 73.352 172.136,73.364 175.833,71.484 181.250 C 70.040 185.410,69.925 186.054,69.924 189.961 C 69.922 194.354,69.562 195.691,67.885 197.526 C 66.944 198.557,66.916 199.682,67.692 205.323 C 68.274 209.555,68.801 211.117,70.427 213.429 C 71.808 215.392,74.618 222.311,75.813 226.694 C 76.448 229.022,77.238 231.448,77.567 232.086 C 78.599 234.081,85.489 241.293,87.816 242.814 C 92.239 245.704,102.080 256.181,103.439 259.447 C 104.096 261.024,105.172 263.454,105.832 264.848 C 107.120 267.571,107.399 270.406,106.639 273.049 C 105.871 275.721,104.295 284.072,103.900 287.557 C 102.824 297.054,96.801 298.488,87.511 291.461 C 84.877 289.469,84.132 289.447,82.349 291.309 C 78.903 294.906,78.834 297.110,82.060 300.645 C 84.311 303.113,84.589 304.530,83.835 309.686 C 82.582 318.256,83.024 321.686,85.699 324.153 C 87.779 326.072,87.741 328.519,85.593 331.002 C 83.458 333.468,83.002 335.655,83.429 341.378 C 84.088 350.192,83.797 352.105,81.444 354.458 C 80.056 355.846,80.140 357.684,81.680 359.614 C 82.346 360.449,83.317 361.969,83.836 362.991 C 87.045 369.300,89.549 371.283,91.602 369.141 C 93.739 366.910,95.690 367.381,97.844 370.650 C 100.113 374.095,101.886 375.329,105.336 375.862 C 106.806 376.089,109.614 376.691,111.576 377.200 C 116.457 378.465,117.834 378.388,123.127 376.553 C 128.495 374.692,133.667 373.883,135.908 374.554 C 138.747 375.405,141.574 375.121,144.663 373.675 C 148.047 372.091,148.470 371.391,148.672 367.040 C 148.827 363.714,149.106 363.132,150.945 362.303 C 151.607 362.005,152.598 361.468,153.148 361.109 C 154.913 359.957,158.231 362.175,159.393 365.283 C 160.578 368.452,160.957 368.496,163.614 365.773 C 169.010 360.245,169.545 354.937,166.027 341.817 C 164.966 337.859,165.046 328.697,166.173 325.231 C 167.288 321.803,166.450 318.630,164.069 317.264 C 161.705 315.907,161.523 314.939,161.523 303.711 L 161.523 293.555 159.491 289.258 C 154.736 279.206,156.059 269.522,163.614 259.063 C 164.903 257.280,166.784 254.203,167.795 252.227 C 170.255 247.415,171.058 246.414,174.499 243.870 C 176.735 242.216,178.176 240.689,180.556 237.452 C 182.274 235.115,183.823 233.203,183.998 233.203 C 184.173 233.203,185.439 231.893,186.811 230.292 C 194.502 221.314,198.738 207.238,199.044 189.648 C 199.299 174.948,199.136 174.257,193.682 166.903 C 191.753 164.301,190.050 161.520,189.497 160.067 C 186.814 153.018,182.120 146.599,178.198 144.615 C 175.806 143.406,174.287 142.221,171.259 139.204 C 166.934 134.895,162.895 131.711,159.961 130.298 C 157.206 128.971,155.660 127.188,154.143 123.591 C 147.807 108.567,140.349 101.243,130.995 100.858 C 123.784 100.562,121.211 102.531,119.331 109.784 C 118.498 113.001,118.313 113.321,115.648 116.186 C 114.420 117.506,112.472 119.984,111.319 121.695 C 106.738 128.487,105.049 129.688,100.077 129.688 C 95.894 129.688,94.725 130.299,92.511 133.646 C 90.772 136.273,88.386 137.500,85.014 137.500 C 79.943 137.500,80.691 134.649,87.679 127.343 C 103.740 110.550,107.281 93.892,98.637 75.789 C 94.915 67.993,94.530 66.469,94.538 59.586 C 94.564 38.332,106.542 24.476,129.334 19.333 C 133.533 18.385,143.776 18.785,148.438 20.079 M123.242 26.487 C 118.940 28.515,114.007 34.245,110.810 40.927 L 109.180 44.336 109.105 50.069 C 109.016 56.910,109.075 57.025,112.246 56.264 C 114.011 55.841,114.801 55.867,117.704 56.443 C 121.382 57.172,121.884 57.144,127.148 55.916 C 129.093 55.462,132.023 55.091,133.704 55.087 C 141.282 55.066,145.453 48.442,143.215 39.987 C 142.638 37.810,142.636 37.458,143.187 36.138 C 144.858 32.138,142.531 30.014,133.762 27.534 C 127.351 25.720,125.300 25.516,123.242 26.487 M211.437 208.301 C 210.669 209.292,210.568 210.232,211.093 211.488 C 212.092 213.880,214.453 213.398,214.453 210.801 C 214.453 208.545,212.500 206.926,211.437 208.301 M229.291 216.129 C 224.201 218.820,226.204 223.840,232.388 223.888 C 234.786 223.906,235.857 223.334,236.557 221.661 C 238.457 217.113,233.938 213.672,229.291 216.129 M168.620 320.573 C 167.438 321.755,168.834 324.883,170.331 324.408 C 170.979 324.202,171.417 324.438,172.269 325.450 L 173.370 326.758 173.794 325.658 C 174.760 323.156,173.594 320.255,172.034 321.277 C 171.061 321.915,170.995 321.908,170.448 321.127 C 169.878 320.314,169.112 320.081,168.620 320.573 " stroke="none" fill="#fcfcfc" fill-rule="evenodd"></path><path id="path1" d="M129.334 19.333 C 106.542 24.476,94.564 38.332,94.538 59.586 C 94.530 66.469,94.915 67.993,98.637 75.789 C 107.281 93.892,103.740 110.550,87.679 127.343 C 80.691 134.649,79.943 137.500,85.014 137.500 C 88.386 137.500,90.772 136.273,92.511 133.646 C 94.725 130.299,95.894 129.688,100.077 129.688 C 105.049 129.688,106.738 128.487,111.319 121.695 C 112.472 119.984,114.420 117.506,115.648 116.186 C 118.313 113.321,118.498 113.001,119.331 109.784 C 121.211 102.531,123.784 100.562,130.995 100.858 C 140.349 101.243,147.807 108.567,154.143 123.591 C 155.660 127.188,157.206 128.971,159.961 130.298 C 162.895 131.711,166.934 134.895,171.259 139.204 C 174.287 142.221,175.806 143.406,178.198 144.615 C 182.120 146.599,186.814 153.018,189.497 160.067 C 190.050 161.520,191.753 164.301,193.682 166.903 C 199.136 174.257,199.299 174.948,199.044 189.648 C 198.738 207.238,194.502 221.314,186.811 230.292 C 185.439 231.893,184.173 233.203,183.998 233.203 C 183.823 233.203,182.274 235.115,180.556 237.452 C 178.176 240.689,176.735 242.216,174.499 243.870 C 171.058 246.414,170.255 247.415,167.795 252.227 C 166.784 254.203,164.903 257.280,163.614 259.063 C 156.059 269.522,154.736 279.206,159.491 289.258 L 161.523 293.555 161.523 303.711 C 161.523 314.939,161.705 315.907,164.069 317.264 C 166.450 318.630,167.288 321.803,166.173 325.231 C 165.046 328.697,164.966 337.859,166.027 341.817 C 169.545 354.937,169.010 360.245,163.614 365.773 C 160.957 368.496,160.578 368.452,159.393 365.283 C 158.231 362.175,154.913 359.957,153.148 361.109 C 152.598 361.468,151.607 362.005,150.945 362.303 C 149.106 363.132,148.827 363.714,148.672 367.040 C 148.470 371.391,148.047 372.091,144.663 373.675 C 141.574 375.121,138.747 375.405,135.908 374.554 C 133.667 373.883,128.495 374.692,123.127 376.553 C 117.834 378.388,116.457 378.465,111.576 377.200 C 109.614 376.691,106.806 376.089,105.336 375.862 C 101.886 375.329,100.113 374.095,97.844 370.650 C 95.690 367.381,93.739 366.910,91.602 369.141 C 89.549 371.283,87.045 369.300,83.836 362.991 C 83.317 361.969,82.346 360.449,81.680 359.614 C 80.140 357.684,80.056 355.846,81.444 354.458 C 83.797 352.105,84.088 350.192,83.429 341.378 C 83.002 335.655,83.458 333.468,85.593 331.002 C 87.741 328.519,87.779 326.072,85.699 324.153 C 83.024 321.686,82.582 318.256,83.835 309.686 C 84.589 304.530,84.311 303.113,82.060 300.645 C 78.834 297.110,78.903 294.906,82.349 291.309 C 84.132 289.447,84.877 289.469,87.511 291.461 C 90.121 293.435,95.752 296.094,97.324 296.094 C 100.921 296.094,103.279 293.033,103.900 287.557 C 104.295 284.072,105.871 275.721,106.639 273.049 C 107.399 270.406,107.120 267.571,105.832 264.848 C 105.172 263.454,104.096 261.024,103.439 259.447 C 102.080 256.181,92.239 245.704,87.816 242.814 C 85.489 241.293,78.599 234.081,77.567 232.086 C 77.238 231.448,76.448 229.022,75.813 226.694 C 74.618 222.311,71.808 215.392,70.427 213.429 C 67.727 209.591,66.110 199.470,67.885 197.526 C 69.562 195.691,69.922 194.354,69.924 189.961 C 69.925 186.054,70.040 185.410,71.484 181.250 C 73.364 175.833,73.352 172.136,71.440 167.480 C 70.650 165.558,66.820 167.165,64.178 170.527 C 63.577 171.292,61.899 172.883,60.448 174.062 C 55.671 177.947,54.146 182.657,54.136 193.555 C 54.122 209.690,57.775 221.412,68.562 239.844 C 82.729 264.050,83.174 274.333,70.584 286.581 C 63.609 293.368,63.758 292.436,63.372 331.641 C 63.018 367.659,63.047 372.830,63.612 374.843 C 64.593 378.343,66.926 380.506,70.520 381.253 C 73.016 381.771,108.247 381.108,113.620 380.442 C 115.991 380.148,117.923 380.164,120.652 380.499 C 122.721 380.753,127.490 380.926,131.250 380.882 C 135.010 380.838,139.141 380.797,140.430 380.790 C 141.719 380.783,152.881 380.994,165.234 381.260 C 189.792 381.787,190.645 381.741,193.862 379.700 C 198.538 376.735,198.880 374.916,199.224 351.172 C 199.394 339.491,199.705 330.025,199.988 327.963 C 200.352 325.308,200.364 323.159,200.038 318.921 C 199.802 315.864,199.608 310.312,199.606 306.583 C 199.600 292.563,199.012 290.868,191.688 283.770 C 187.729 279.932,186.615 278.596,185.518 276.366 L 184.180 273.644 184.203 267.779 C 184.242 257.928,188.549 246.922,196.462 236.453 C 200.276 231.406,202.381 231.216,236.914 232.797 C 262.534 233.970,351.423 233.607,354.394 232.317 C 358.438 230.561,356.726 227.639,350.218 225.190 C 348.768 224.644,346.588 223.529,345.373 222.713 C 342.754 220.952,342.633 220.903,337.979 219.715 C 333.506 218.573,332.425 217.822,330.629 214.612 C 329.559 212.699,328.722 211.765,327.204 210.793 C 326.099 210.086,324.320 208.748,323.249 207.821 C 320.418 205.367,319.361 205.027,315.500 205.323 C 311.491 205.632,309.903 205.169,303.398 201.801 C 299.004 199.525,298.637 199.408,295.550 199.279 C 289.953 199.045,285.337 202.014,285.621 205.664 C 285.779 207.704,284.687 207.714,281.694 205.700 C 279.148 203.987,276.661 203.268,272.146 202.940 C 264.310 202.371,260.884 201.338,259.594 199.154 C 257.192 195.088,253.548 194.530,248.049 197.385 C 246.222 198.334,243.767 199.425,242.595 199.809 C 241.147 200.283,240.030 200.990,239.114 202.010 C 236.466 204.960,233.467 205.041,228.228 202.304 C 223.755 199.967,223.047 199.406,223.047 198.202 C 223.047 196.562,221.158 193.607,219.609 192.825 C 214.526 190.256,216.264 183.984,222.058 183.984 C 222.898 183.984,223.440 183.794,223.443 183.496 C 223.446 183.228,223.552 182.622,223.678 182.150 C 223.870 181.435,223.550 181.062,221.767 179.922 C 217.983 177.501,215.361 173.088,214.194 167.179 C 213.795 165.153,215.104 164.633,220.277 164.764 C 223.707 164.851,225.717 164.690,228.341 164.116 C 230.263 163.696,233.154 163.240,234.766 163.104 C 238.385 162.797,243.497 162.284,250.391 161.536 C 260.337 160.457,266.611 160.098,273.828 160.193 C 277.803 160.245,286.504 160.242,293.164 160.185 C 299.824 160.128,307.295 160.208,309.766 160.363 C 315.503 160.722,320.431 160.101,325.663 158.358 C 329.350 157.130,330.017 157.031,334.647 157.021 C 348.628 156.993,356.580 154.599,355.567 150.723 C 354.922 148.259,352.727 148.011,335.742 148.479 C 326.189 148.743,311.571 148.774,294.727 148.566 C 265.476 148.204,226.765 148.600,213.477 149.397 C 202.235 150.072,197.462 148.194,191.556 140.775 C 189.987 138.805,187.071 135.699,185.075 133.874 C 183.078 132.049,180.039 129.276,178.320 127.713 C 169.829 119.988,167.708 116.592,164.187 105.078 C 161.056 94.840,161.802 89.648,168.010 78.440 C 178.715 59.118,176.503 43.902,160.568 27.234 C 156.447 22.923,154.457 21.749,148.438 20.079 C 143.776 18.785,133.533 18.385,129.334 19.333 M133.762 27.534 C 142.531 30.014,144.858 32.138,143.187 36.138 C 142.636 37.458,142.638 37.810,143.215 39.987 C 145.453 48.442,141.282 55.066,133.704 55.087 C 132.023 55.091,129.093 55.462,127.148 55.916 C 121.884 57.144,121.382 57.172,117.704 56.443 C 114.801 55.867,114.011 55.841,112.246 56.264 C 109.075 57.025,109.016 56.910,109.105 50.069 L 109.180 44.336 110.810 40.927 C 113.106 36.127,116.058 32.030,119.085 29.442 C 123.984 25.252,125.157 25.100,133.762 27.534 M213.845 208.681 C 214.615 209.780,214.630 211.877,213.874 212.633 C 213.012 213.495,211.707 212.958,211.093 211.488 C 209.982 208.829,212.296 206.469,213.845 208.681 M234.516 215.772 C 237.435 216.992,237.846 221.998,235.146 223.443 C 232.733 224.734,227.490 223.333,226.588 221.156 C 225.170 217.732,230.516 214.101,234.516 215.772 M170.448 321.127 C 170.995 321.908,171.061 321.915,172.034 321.277 C 173.594 320.255,174.760 323.156,173.794 325.658 L 173.370 326.758 172.269 325.450 C 171.417 324.438,170.979 324.202,170.331 324.408 C 169.128 324.790,168.359 323.961,168.359 322.283 C 168.359 320.134,169.363 319.578,170.448 321.127 " stroke="none" fill="#040404" fill-rule="evenodd"></path></g></svg>